<svg id="balance" enable-background="new 0 0 300 300" height="512" viewBox="0 0 300 300" width="512" xmlns="http://www.w3.org/2000/svg"><g><circle cx="78" cy="154" r="4"/><circle cx="82" cy="178" r="4"/><circle cx="86" cy="126" r="4"/><path d="m242 246h-48v-12c0-2.211-1.791-4-4-4h-16.312l-10.664-131.533c1.57-.914 3.03-1.988 4.37-3.199l30.606 8.592v94.14c0 11.027 8.973 20 20 20s20-8.973 20-20v-136c2.209 0 4-1.789 4-4s-1.791-4-4-4h-4-32-4c-2.209 0-4 1.789-4 4s1.791 4 4 4v21.086l-22.046-6.186c.01-.301.046-.597.046-.9 0-14.336-11.664-26-26-26-9.706 0-18.174 5.356-22.639 13.259l-25.361-7.119v-14.14c2.209 0 4-1.789 4-4s-1.791-4-4-4h-40c-2.209 0-4 1.789-4 4s1.791 4 4 4v136c0 11.027 8.973 20 20 20s20-8.973 20-20v-101.087l23.086 6.481c1.906 6.408 6.221 11.774 11.891 15.074l-10.665 131.532h-16.312c-2.209 0-4 1.789-4 4v12h-48c-8.822 0-16 7.176-16 16 0 2.211 1.791 4 4 4h208c2.209 0 4-1.789 4-4 0-8.824-7.178-16-16-16zm-36-136h24v68h-24zm0-8v-12h24v12zm12 108c-6.617 0-12-5.383-12-12v-12h24v12c0 6.617-5.383 12-12 12zm12-148v20h-24v-20zm-32 29.396v4.155l-25.2-7.074c.646-1.175 1.179-2.416 1.64-3.692zm-104-9.396h-24v-12h24zm-24 16v-8h24v8zm24-56v20h-24v-20zm-12 148c-6.617 0-12-5.383-12-12v-72h24v72c0 6.617-5.383 12-12 12zm20-125.55 22.528 6.324c-.267 1.305-.404 2.654-.467 4.021l-22.061-6.192zm48-6.45c9.926 0 18 8.074 18 18s-8.074 18-18 18-18-8.074-18-18 8.074-18 18-18zm-5.24 43.469c1.693.348 3.446.531 5.24.531 1.795 0 3.548-.184 5.242-.531l10.421 128.531h-31.325zm-30.76 136.531h72v8h-72zm-62.926 20c1.385-2.391 3.971-4 6.926-4h184c2.955 0 5.541 1.609 6.926 4z"/><path d="m150 90c7.719 0 14-6.281 14-14s-6.281-14-14-14-14 6.281-14 14 6.281 14 14 14zm0-20c3.309 0 6 2.691 6 6s-2.691 6-6 6-6-2.691-6-6 2.691-6 6-6z"/><circle cx="214" cy="198" r="4"/></g></svg>